<mxfile host="Electron" agent="Mozilla/5.0 (X11; Linux x86_64) AppleWebKit/537.36 (KHTML, like Gecko) draw.io/24.7.8 Chrome/128.0.6613.36 Electron/32.0.1 Safari/537.36" version="24.7.8" pages="2">
  <diagram name="Page-1" id="H1BRqDLk52WIMEYVEVvC">
    <mxGraphModel dx="698" dy="406" grid="1" gridSize="10" guides="1" tooltips="1" connect="1" arrows="1" fold="1" page="1" pageScale="1" pageWidth="1169" pageHeight="827" math="0" shadow="0">
      <root>
        <mxCell id="0" />
        <mxCell id="1" parent="0" />
        <mxCell id="moRG7wbmOulS5QgMCnU8-2" value="Working&lt;div&gt;Directory&lt;/div&gt;" style="rounded=1;whiteSpace=wrap;html=1;fontStyle=1;fillColor=#dae8fc;strokeColor=#6c8ebf;labelBackgroundColor=none;" vertex="1" parent="1">
          <mxGeometry x="350" y="110" width="80" height="60" as="geometry" />
        </mxCell>
        <mxCell id="moRG7wbmOulS5QgMCnU8-3" value="Staging&lt;br&gt;Area" style="rounded=1;whiteSpace=wrap;html=1;fontStyle=1;fillColor=#ffe6cc;strokeColor=#d79b00;labelBackgroundColor=none;" vertex="1" parent="1">
          <mxGeometry x="450" y="110" width="80" height="60" as="geometry" />
        </mxCell>
        <mxCell id="moRG7wbmOulS5QgMCnU8-4" value="Local&lt;div&gt;Repo&lt;/div&gt;" style="rounded=1;whiteSpace=wrap;html=1;fontStyle=1;fillColor=#d5e8d4;strokeColor=#82b366;labelBackgroundColor=none;" vertex="1" parent="1">
          <mxGeometry x="550" y="110" width="80" height="60" as="geometry" />
        </mxCell>
        <mxCell id="moRG7wbmOulS5QgMCnU8-5" value="Remote&lt;div&gt;Repo&lt;/div&gt;" style="rounded=1;whiteSpace=wrap;html=1;fontStyle=1;fillColor=#e1d5e7;strokeColor=#9673a6;labelBackgroundColor=none;" vertex="1" parent="1">
          <mxGeometry x="650" y="110" width="80" height="60" as="geometry" />
        </mxCell>
        <mxCell id="moRG7wbmOulS5QgMCnU8-9" value="" style="endArrow=none;html=1;rounded=0;entryX=0.5;entryY=1;entryDx=0;entryDy=0;fontStyle=1;labelBackgroundColor=none;" edge="1" parent="1">
          <mxGeometry width="50" height="50" relative="1" as="geometry">
            <mxPoint x="490" y="320" as="sourcePoint" />
            <mxPoint x="489.71" y="170" as="targetPoint" />
          </mxGeometry>
        </mxCell>
        <mxCell id="moRG7wbmOulS5QgMCnU8-10" value="" style="endArrow=none;html=1;rounded=0;entryX=0.5;entryY=1;entryDx=0;entryDy=0;fontStyle=1;labelBackgroundColor=none;" edge="1" parent="1">
          <mxGeometry width="50" height="50" relative="1" as="geometry">
            <mxPoint x="590" y="320" as="sourcePoint" />
            <mxPoint x="589.71" y="170" as="targetPoint" />
          </mxGeometry>
        </mxCell>
        <mxCell id="moRG7wbmOulS5QgMCnU8-11" value="" style="endArrow=none;html=1;rounded=0;entryX=0.5;entryY=1;entryDx=0;entryDy=0;fontStyle=1;labelBackgroundColor=none;" edge="1" parent="1">
          <mxGeometry width="50" height="50" relative="1" as="geometry">
            <mxPoint x="390" y="320" as="sourcePoint" />
            <mxPoint x="389.71" y="170" as="targetPoint" />
          </mxGeometry>
        </mxCell>
        <mxCell id="moRG7wbmOulS5QgMCnU8-12" value="git add" style="shape=flexArrow;endArrow=classic;html=1;rounded=0;endWidth=20.979591836734695;endSize=7.777142857142857;width=18.285714285714285;fontStyle=1;fillColor=#dae8fc;strokeColor=#6c8ebf;labelBackgroundColor=none;" edge="1" parent="1">
          <mxGeometry x="-0.0041" width="50" height="50" relative="1" as="geometry">
            <mxPoint x="400" y="200" as="sourcePoint" />
            <mxPoint x="480" y="200" as="targetPoint" />
            <mxPoint as="offset" />
          </mxGeometry>
        </mxCell>
        <mxCell id="moRG7wbmOulS5QgMCnU8-13" value="" style="endArrow=none;dashed=1;html=1;dashPattern=1 3;strokeWidth=2;rounded=0;labelBackgroundColor=none;" edge="1" parent="1">
          <mxGeometry width="50" height="50" relative="1" as="geometry">
            <mxPoint x="640" y="320" as="sourcePoint" />
            <mxPoint x="640" y="110" as="targetPoint" />
          </mxGeometry>
        </mxCell>
        <mxCell id="moRG7wbmOulS5QgMCnU8-15" value="git commit" style="shape=flexArrow;endArrow=classic;html=1;rounded=0;endWidth=20.979591836734695;endSize=7.777142857142857;width=18.285714285714285;fontStyle=1;fillColor=#ffe6cc;strokeColor=#d79b00;labelBackgroundColor=none;" edge="1" parent="1">
          <mxGeometry width="50" height="50" relative="1" as="geometry">
            <mxPoint x="500" y="200" as="sourcePoint" />
            <mxPoint x="580" y="200" as="targetPoint" />
            <mxPoint as="offset" />
          </mxGeometry>
        </mxCell>
        <mxCell id="moRG7wbmOulS5QgMCnU8-16" value="" style="endArrow=none;html=1;rounded=0;entryX=0.5;entryY=1;entryDx=0;entryDy=0;fontStyle=1;labelBackgroundColor=none;" edge="1" parent="1">
          <mxGeometry width="50" height="50" relative="1" as="geometry">
            <mxPoint x="690" y="320" as="sourcePoint" />
            <mxPoint x="689.71" y="170" as="targetPoint" />
          </mxGeometry>
        </mxCell>
        <mxCell id="moRG7wbmOulS5QgMCnU8-17" value="git push" style="shape=flexArrow;endArrow=classic;html=1;rounded=0;endWidth=20.979591836734695;endSize=7.777142857142857;width=18.285714285714285;fontStyle=1;fillColor=#d5e8d4;strokeColor=#82b366;labelBackgroundColor=none;" edge="1" parent="1">
          <mxGeometry width="50" height="50" relative="1" as="geometry">
            <mxPoint x="600" y="200" as="sourcePoint" />
            <mxPoint x="680" y="200" as="targetPoint" />
            <mxPoint as="offset" />
          </mxGeometry>
        </mxCell>
        <mxCell id="moRG7wbmOulS5QgMCnU8-20" value="git pull" style="shape=flexArrow;endArrow=classic;html=1;rounded=0;endWidth=20.979591836734695;endSize=7.777142857142857;width=18.285714285714285;fontStyle=1;fillColor=#e1d5e7;labelBackgroundColor=none;strokeColor=#9673a6;" edge="1" parent="1">
          <mxGeometry x="0.1111" width="50" height="50" relative="1" as="geometry">
            <mxPoint x="680" y="240" as="sourcePoint" />
            <mxPoint x="400" y="240" as="targetPoint" />
            <mxPoint as="offset" />
          </mxGeometry>
        </mxCell>
        <mxCell id="moRG7wbmOulS5QgMCnU8-26" value="git clone" style="shape=flexArrow;endArrow=classic;html=1;rounded=0;endWidth=20.979591836734695;endSize=7.777142857142857;width=18.285714285714285;fontStyle=1;fillColor=#e1d5e7;labelBackgroundColor=none;strokeColor=#9673a6;" edge="1" parent="1">
          <mxGeometry x="0.1111" width="50" height="50" relative="1" as="geometry">
            <mxPoint x="680" y="290" as="sourcePoint" />
            <mxPoint x="600" y="290" as="targetPoint" />
            <mxPoint as="offset" />
          </mxGeometry>
        </mxCell>
        <mxCell id="moRG7wbmOulS5QgMCnU8-28" value="git checkout" style="shape=flexArrow;endArrow=classic;html=1;rounded=0;endWidth=20.979591836734695;endSize=7.777142857142857;width=18.285714285714285;fontStyle=1;fillColor=#d5e8d4;strokeColor=#82b366;labelBackgroundColor=none;" edge="1" parent="1">
          <mxGeometry width="50" height="50" relative="1" as="geometry">
            <mxPoint x="580" y="290" as="sourcePoint" />
            <mxPoint x="400" y="290" as="targetPoint" />
            <mxPoint as="offset" />
          </mxGeometry>
        </mxCell>
      </root>
    </mxGraphModel>
  </diagram>
  <diagram id="3uQREfYwauTC2D8q0Y_B" name="Page-2">
    <mxGraphModel dx="582" dy="338" grid="1" gridSize="10" guides="1" tooltips="1" connect="1" arrows="1" fold="1" page="1" pageScale="1" pageWidth="1169" pageHeight="827" math="0" shadow="0">
      <root>
        <mxCell id="0" />
        <mxCell id="1" parent="0" />
        <mxCell id="Cy5z_uQeSUX739x008md-14" style="edgeStyle=orthogonalEdgeStyle;rounded=0;orthogonalLoop=1;jettySize=auto;html=1;" edge="1" parent="1" source="Cy5z_uQeSUX739x008md-1" target="Cy5z_uQeSUX739x008md-2">
          <mxGeometry relative="1" as="geometry" />
        </mxCell>
        <mxCell id="Cy5z_uQeSUX739x008md-1" value="" style="ellipse;whiteSpace=wrap;html=1;aspect=fixed;fillColor=#d5e8d4;strokeColor=#82b366;" vertex="1" parent="1">
          <mxGeometry x="520" y="200" width="40" height="40" as="geometry" />
        </mxCell>
        <mxCell id="Cy5z_uQeSUX739x008md-17" style="edgeStyle=orthogonalEdgeStyle;rounded=0;orthogonalLoop=1;jettySize=auto;html=1;" edge="1" parent="1" source="Cy5z_uQeSUX739x008md-2" target="Cy5z_uQeSUX739x008md-3">
          <mxGeometry relative="1" as="geometry" />
        </mxCell>
        <mxCell id="Cy5z_uQeSUX739x008md-2" value="" style="ellipse;whiteSpace=wrap;html=1;aspect=fixed;fillColor=#d5e8d4;strokeColor=#82b366;" vertex="1" parent="1">
          <mxGeometry x="600" y="200" width="40" height="40" as="geometry" />
        </mxCell>
        <mxCell id="Cy5z_uQeSUX739x008md-3" value="" style="ellipse;whiteSpace=wrap;html=1;aspect=fixed;fillColor=#d5e8d4;strokeColor=#82b366;" vertex="1" parent="1">
          <mxGeometry x="680" y="200" width="40" height="40" as="geometry" />
        </mxCell>
        <mxCell id="Cy5z_uQeSUX739x008md-13" style="edgeStyle=orthogonalEdgeStyle;rounded=0;orthogonalLoop=1;jettySize=auto;html=1;" edge="1" parent="1" source="Cy5z_uQeSUX739x008md-4" target="Cy5z_uQeSUX739x008md-1">
          <mxGeometry relative="1" as="geometry" />
        </mxCell>
        <mxCell id="Cy5z_uQeSUX739x008md-24" style="edgeStyle=orthogonalEdgeStyle;rounded=0;orthogonalLoop=1;jettySize=auto;html=1;entryX=0;entryY=0.5;entryDx=0;entryDy=0;curved=1;" edge="1" parent="1" source="Cy5z_uQeSUX739x008md-4" target="Cy5z_uQeSUX739x008md-22">
          <mxGeometry relative="1" as="geometry" />
        </mxCell>
        <mxCell id="Cy5z_uQeSUX739x008md-4" value="" style="ellipse;whiteSpace=wrap;html=1;aspect=fixed;fillColor=#d5e8d4;strokeColor=#82b366;" vertex="1" parent="1">
          <mxGeometry x="440" y="200" width="40" height="40" as="geometry" />
        </mxCell>
        <mxCell id="Cy5z_uQeSUX739x008md-12" style="edgeStyle=orthogonalEdgeStyle;rounded=0;orthogonalLoop=1;jettySize=auto;html=1;" edge="1" parent="1" source="Cy5z_uQeSUX739x008md-5" target="Cy5z_uQeSUX739x008md-4">
          <mxGeometry relative="1" as="geometry" />
        </mxCell>
        <mxCell id="Cy5z_uQeSUX739x008md-26" style="edgeStyle=orthogonalEdgeStyle;rounded=0;orthogonalLoop=1;jettySize=auto;html=1;entryX=0;entryY=0.5;entryDx=0;entryDy=0;curved=1;" edge="1" parent="1" source="Cy5z_uQeSUX739x008md-5" target="Cy5z_uQeSUX739x008md-6">
          <mxGeometry relative="1" as="geometry" />
        </mxCell>
        <mxCell id="Cy5z_uQeSUX739x008md-5" value="" style="ellipse;whiteSpace=wrap;html=1;aspect=fixed;fillColor=#d5e8d4;strokeColor=#82b366;" vertex="1" parent="1">
          <mxGeometry x="360" y="200" width="40" height="40" as="geometry" />
        </mxCell>
        <mxCell id="Cy5z_uQeSUX739x008md-18" style="edgeStyle=orthogonalEdgeStyle;rounded=0;orthogonalLoop=1;jettySize=auto;html=1;" edge="1" parent="1" source="Cy5z_uQeSUX739x008md-6" target="Cy5z_uQeSUX739x008md-7">
          <mxGeometry relative="1" as="geometry" />
        </mxCell>
        <mxCell id="Cy5z_uQeSUX739x008md-21" style="edgeStyle=orthogonalEdgeStyle;rounded=0;orthogonalLoop=1;jettySize=auto;html=1;elbow=vertical;exitX=1;exitY=0.5;exitDx=0;exitDy=0;entryX=0;entryY=0.5;entryDx=0;entryDy=0;curved=1;" edge="1" parent="1" source="Cy5z_uQeSUX739x008md-6" target="Cy5z_uQeSUX739x008md-8">
          <mxGeometry relative="1" as="geometry">
            <mxPoint x="510" y="80" as="targetPoint" />
            <Array as="points">
              <mxPoint x="500" y="170" />
              <mxPoint x="500" y="120" />
            </Array>
          </mxGeometry>
        </mxCell>
        <mxCell id="Cy5z_uQeSUX739x008md-6" value="" style="ellipse;whiteSpace=wrap;html=1;aspect=fixed;fillColor=#dae8fc;strokeColor=#6c8ebf;" vertex="1" parent="1">
          <mxGeometry x="440" y="150" width="40" height="40" as="geometry" />
        </mxCell>
        <mxCell id="Cy5z_uQeSUX739x008md-19" style="edgeStyle=orthogonalEdgeStyle;rounded=0;orthogonalLoop=1;jettySize=auto;html=1;entryX=0;entryY=0.5;entryDx=0;entryDy=0;curved=1;exitX=1;exitY=0.5;exitDx=0;exitDy=0;" edge="1" parent="1" source="Cy5z_uQeSUX739x008md-7" target="Cy5z_uQeSUX739x008md-2">
          <mxGeometry relative="1" as="geometry">
            <Array as="points">
              <mxPoint x="570" y="170" />
              <mxPoint x="570" y="220" />
            </Array>
          </mxGeometry>
        </mxCell>
        <mxCell id="Cy5z_uQeSUX739x008md-7" value="" style="ellipse;whiteSpace=wrap;html=1;aspect=fixed;fillColor=#dae8fc;strokeColor=#6c8ebf;" vertex="1" parent="1">
          <mxGeometry x="520" y="150" width="40" height="40" as="geometry" />
        </mxCell>
        <mxCell id="Cy5z_uQeSUX739x008md-8" value="" style="ellipse;whiteSpace=wrap;html=1;aspect=fixed;fillColor=#e1d5e7;strokeColor=#9673a6;" vertex="1" parent="1">
          <mxGeometry x="600" y="100" width="40" height="40" as="geometry" />
        </mxCell>
        <mxCell id="Cy5z_uQeSUX739x008md-25" style="edgeStyle=orthogonalEdgeStyle;rounded=0;orthogonalLoop=1;jettySize=auto;html=1;" edge="1" parent="1" source="Cy5z_uQeSUX739x008md-22" target="Cy5z_uQeSUX739x008md-23">
          <mxGeometry relative="1" as="geometry" />
        </mxCell>
        <mxCell id="Cy5z_uQeSUX739x008md-22" value="" style="ellipse;whiteSpace=wrap;html=1;aspect=fixed;fillColor=#ffe6cc;strokeColor=#d79b00;" vertex="1" parent="1">
          <mxGeometry x="520" y="250" width="40" height="40" as="geometry" />
        </mxCell>
        <mxCell id="Cy5z_uQeSUX739x008md-23" value="" style="ellipse;whiteSpace=wrap;html=1;aspect=fixed;fillColor=#ffe6cc;strokeColor=#d79b00;" vertex="1" parent="1">
          <mxGeometry x="600" y="250" width="40" height="40" as="geometry" />
        </mxCell>
        <mxCell id="Cy5z_uQeSUX739x008md-27" value="Main" style="text;html=1;align=center;verticalAlign=middle;whiteSpace=wrap;rounded=0;fontStyle=1" vertex="1" parent="1">
          <mxGeometry x="730" y="210" width="30" height="20" as="geometry" />
        </mxCell>
        <mxCell id="Cy5z_uQeSUX739x008md-28" value="Feature B" style="text;html=1;align=center;verticalAlign=middle;whiteSpace=wrap;rounded=0;fontStyle=1" vertex="1" parent="1">
          <mxGeometry x="650" y="260" width="80" height="20" as="geometry" />
        </mxCell>
        <mxCell id="Cy5z_uQeSUX739x008md-29" value="Feature A" style="text;html=1;align=center;verticalAlign=middle;whiteSpace=wrap;rounded=0;fontStyle=1" vertex="1" parent="1">
          <mxGeometry x="570" y="160" width="80" height="20" as="geometry" />
        </mxCell>
        <mxCell id="Cy5z_uQeSUX739x008md-30" value="Bob&#39;s Work" style="text;html=1;align=center;verticalAlign=middle;whiteSpace=wrap;rounded=0;fontStyle=1" vertex="1" parent="1">
          <mxGeometry x="650" y="110" width="80" height="20" as="geometry" />
        </mxCell>
      </root>
    </mxGraphModel>
  </diagram>
</mxfile>
